<?xml version="1.0" standalone="no"?>
<!DOCTYPE svg PUBLIC "-//W3C//DTD SVG 20010904//EN"
 "http://www.w3.org/TR/2001/REC-SVG-20010904/DTD/svg10.dtd">
<svg version="1.0" xmlns="http://www.w3.org/2000/svg"
 width="2048.000000pt" height="2048.000000pt" viewBox="0 0 2048.000000 2048.000000"
 preserveAspectRatio="xMidYMid meet">

<g transform="translate(0.000000,2048.000000) scale(0.100000,-0.100000)"
fill="#000000" stroke="none">
<path d="M7899 17066 l-640 -854 -742 -5 c-688 -4 -753 -6 -893 -25 -417 -59
-744 -158 -1099 -332 -1015 -498 -1724 -1446 -1910 -2553 -47 -282 -47 -297
-52 -1489 l-5 -1138 851 0 850 0 4 1063 c3 960 5 1072 21 1167 97 573 388
1047 826 1341 171 115 354 194 558 241 l97 23 4363 2 c2399 2 4362 5 4362 8 0
3 -574 770 -1275 1705 l-1275 1700 -1700 0 -1700 0 -641 -854z"/>
<path d="M9960 11925 c-588 -72 -1108 -324 -1519 -737 -689 -691 -924 -1696
-612 -2621 93 -277 236 -536 429 -782 73 -92 297 -316 392 -391 264 -209 583
-373 896 -463 888 -255 1848 -6 2504 649 423 423 681 969 741 1564 15 149 7
472 -16 616 -99 639 -434 1220 -935 1622 -309 247 -702 431 -1086 507 -82 16
-198 35 -258 40 -143 14 -404 12 -536 -4z"/>
<path d="M2563 6948 c4 -1236 3 -1213 58 -1518 161 -907 699 -1733 1474 -2262
399 -273 891 -473 1360 -552 304 -52 171 -49 2563 -53 l2222 -4 0 851 0 850
-67 1 c-38 1 -1038 5 -2223 9 l-2155 7 -121 26 c-155 34 -272 75 -404 143
-521 265 -884 795 -986 1440 -16 97 -18 222 -21 1162 l-4 1052 -850 0 -850 0
4 -1152z"/>
</g>
</svg>
